<mxfile host="app.diagrams.net" modified="2021-07-23T08:58:15.799Z" agent="5.0 (Windows NT 10.0; WOW64) AppleWebKit/537.36 (KHTML, like Gecko) Chrome/83.0.4103.61 Safari/537.36" etag="lvzICx16QSWl_OtAQjhj" version="14.9.1" type="github">
  <diagram id="om7GCIjXOvIVFAaJFHCs" name="第 1 页">
    <mxGraphModel dx="208" dy="-1047" grid="1" gridSize="10" guides="1" tooltips="1" connect="1" arrows="1" fold="1" page="0" pageScale="1" pageWidth="827" pageHeight="1169" math="0" shadow="0">
      <root>
        <mxCell id="0" />
        <mxCell id="1" parent="0" />
        <mxCell id="T1pnPK0idN3J2CBUCr8N-1" value="7" style="ellipse;whiteSpace=wrap;html=1;aspect=fixed;fillColor=#f8cecc;strokeColor=#b85450;gradientColor=#ea6b66;" vertex="1" parent="1">
          <mxGeometry x="1120" y="2120" width="40" height="40" as="geometry" />
        </mxCell>
        <mxCell id="T1pnPK0idN3J2CBUCr8N-2" value="3" style="ellipse;whiteSpace=wrap;html=1;aspect=fixed;fillColor=#f5f5f5;strokeColor=#666666;gradientColor=#b3b3b3;" vertex="1" parent="1">
          <mxGeometry x="1080" y="2040" width="40" height="40" as="geometry" />
        </mxCell>
        <mxCell id="T1pnPK0idN3J2CBUCr8N-3" value="8" style="ellipse;whiteSpace=wrap;html=1;aspect=fixed;fillColor=#f5f5f5;strokeColor=#666666;gradientColor=#b3b3b3;" vertex="1" parent="1">
          <mxGeometry x="1160" y="2040" width="40" height="40" as="geometry" />
        </mxCell>
        <mxCell id="T1pnPK0idN3J2CBUCr8N-4" style="edgeStyle=none;rounded=1;sketch=0;orthogonalLoop=1;jettySize=auto;html=1;exitX=0.5;exitY=1;exitDx=0;exitDy=0;entryX=0.5;entryY=0;entryDx=0;entryDy=0;fontColor=#143642;strokeColor=#A8201A;fillColor=#FAE5C7;" edge="1" parent="1" target="T1pnPK0idN3J2CBUCr8N-2">
          <mxGeometry x="1040" y="1880" as="geometry">
            <mxPoint x="1140" y="2000" as="sourcePoint" />
          </mxGeometry>
        </mxCell>
        <mxCell id="T1pnPK0idN3J2CBUCr8N-5" style="edgeStyle=none;rounded=1;sketch=0;orthogonalLoop=1;jettySize=auto;html=1;exitX=0.5;exitY=1;exitDx=0;exitDy=0;entryX=0.5;entryY=0;entryDx=0;entryDy=0;fontColor=#143642;strokeColor=#A8201A;fillColor=#FAE5C7;" edge="1" parent="1" target="T1pnPK0idN3J2CBUCr8N-3">
          <mxGeometry x="1040" y="1880" as="geometry">
            <mxPoint x="1140" y="2000" as="sourcePoint" />
          </mxGeometry>
        </mxCell>
        <mxCell id="T1pnPK0idN3J2CBUCr8N-6" style="rounded=1;sketch=0;orthogonalLoop=1;jettySize=auto;html=1;exitX=0.5;exitY=1;exitDx=0;exitDy=0;entryX=0.5;entryY=0;entryDx=0;entryDy=0;fontColor=#143642;strokeColor=#A8201A;fillColor=#FAE5C7;" edge="1" parent="1" source="T1pnPK0idN3J2CBUCr8N-13" target="T1pnPK0idN3J2CBUCr8N-23">
          <mxGeometry x="1160" y="1880" as="geometry">
            <mxPoint x="1340" y="1920" as="sourcePoint" />
            <mxPoint x="1140" y="1960" as="targetPoint" />
          </mxGeometry>
        </mxCell>
        <mxCell id="T1pnPK0idN3J2CBUCr8N-7" value="16" style="ellipse;whiteSpace=wrap;html=1;aspect=fixed;fillColor=#f5f5f5;strokeColor=#666666;gradientColor=#b3b3b3;" vertex="1" parent="1">
          <mxGeometry x="1400" y="2040" width="40" height="40" as="geometry" />
        </mxCell>
        <mxCell id="T1pnPK0idN3J2CBUCr8N-8" style="edgeStyle=none;rounded=0;orthogonalLoop=1;jettySize=auto;html=1;exitX=0.5;exitY=1;exitDx=0;exitDy=0;entryX=0.5;entryY=0;entryDx=0;entryDy=0;gradientColor=#ea6b66;fillColor=#f8cecc;strokeColor=#b85450;" edge="1" parent="1" source="T1pnPK0idN3J2CBUCr8N-9" target="T1pnPK0idN3J2CBUCr8N-19">
          <mxGeometry relative="1" as="geometry" />
        </mxCell>
        <mxCell id="T1pnPK0idN3J2CBUCr8N-9" value="13" style="ellipse;whiteSpace=wrap;html=1;aspect=fixed;gradientColor=#b3b3b3;fillColor=#f5f5f5;strokeColor=#666666;" vertex="1" parent="1">
          <mxGeometry x="1320" y="2040" width="40" height="40" as="geometry" />
        </mxCell>
        <mxCell id="T1pnPK0idN3J2CBUCr8N-10" value="3" style="ellipse;whiteSpace=wrap;html=1;aspect=fixed;fillColor=#f5f5f5;strokeColor=#666666;gradientColor=#b3b3b3;" vertex="1" parent="1">
          <mxGeometry x="1080" y="2040" width="40" height="40" as="geometry" />
        </mxCell>
        <mxCell id="T1pnPK0idN3J2CBUCr8N-11" value="8" style="ellipse;whiteSpace=wrap;html=1;aspect=fixed;fillColor=#f5f5f5;strokeColor=#666666;gradientColor=#b3b3b3;" vertex="1" parent="1">
          <mxGeometry x="1160" y="2040" width="40" height="40" as="geometry" />
        </mxCell>
        <mxCell id="T1pnPK0idN3J2CBUCr8N-12" style="edgeStyle=none;rounded=0;orthogonalLoop=1;jettySize=auto;html=1;exitX=0.5;exitY=1;exitDx=0;exitDy=0;entryX=0.5;entryY=0;entryDx=0;entryDy=0;gradientColor=#ea6b66;fillColor=#f8cecc;strokeColor=#b85450;" edge="1" parent="1" source="T1pnPK0idN3J2CBUCr8N-13" target="T1pnPK0idN3J2CBUCr8N-22">
          <mxGeometry relative="1" as="geometry" />
        </mxCell>
        <mxCell id="T1pnPK0idN3J2CBUCr8N-13" value="12" style="ellipse;whiteSpace=wrap;html=1;aspect=fixed;fillColor=#f5f5f5;strokeColor=#666666;gradientColor=#b3b3b3;" vertex="1" parent="1">
          <mxGeometry x="1240" y="1880" width="40" height="40" as="geometry" />
        </mxCell>
        <mxCell id="T1pnPK0idN3J2CBUCr8N-14" value="3" style="ellipse;whiteSpace=wrap;html=1;aspect=fixed;fillColor=#f5f5f5;strokeColor=#666666;gradientColor=#b3b3b3;" vertex="1" parent="1">
          <mxGeometry x="1080" y="2040" width="40" height="40" as="geometry" />
        </mxCell>
        <mxCell id="T1pnPK0idN3J2CBUCr8N-15" style="edgeStyle=none;rounded=0;orthogonalLoop=1;jettySize=auto;html=1;exitX=0.5;exitY=1;exitDx=0;exitDy=0;entryX=0.5;entryY=0;entryDx=0;entryDy=0;strokeColor=#A8201A;" edge="1" parent="1" source="T1pnPK0idN3J2CBUCr8N-17" target="T1pnPK0idN3J2CBUCr8N-1">
          <mxGeometry relative="1" as="geometry" />
        </mxCell>
        <mxCell id="T1pnPK0idN3J2CBUCr8N-16" style="edgeStyle=none;rounded=0;orthogonalLoop=1;jettySize=auto;html=1;exitX=0.5;exitY=1;exitDx=0;exitDy=0;entryX=0.5;entryY=0;entryDx=0;entryDy=0;strokeColor=#A8201A;" edge="1" parent="1" source="T1pnPK0idN3J2CBUCr8N-17" target="T1pnPK0idN3J2CBUCr8N-18">
          <mxGeometry relative="1" as="geometry" />
        </mxCell>
        <mxCell id="T1pnPK0idN3J2CBUCr8N-17" value="8" style="ellipse;whiteSpace=wrap;html=1;aspect=fixed;fillColor=#f5f5f5;strokeColor=#666666;gradientColor=#b3b3b3;" vertex="1" parent="1">
          <mxGeometry x="1160" y="2040" width="40" height="40" as="geometry" />
        </mxCell>
        <mxCell id="T1pnPK0idN3J2CBUCr8N-18" value="9" style="ellipse;whiteSpace=wrap;html=1;aspect=fixed;fillColor=#f8cecc;strokeColor=#b85450;gradientColor=#ea6b66;" vertex="1" parent="1">
          <mxGeometry x="1200" y="2120" width="40" height="40" as="geometry" />
        </mxCell>
        <mxCell id="T1pnPK0idN3J2CBUCr8N-19" value="14" style="ellipse;whiteSpace=wrap;html=1;aspect=fixed;fillColor=#f8cecc;strokeColor=#b85450;gradientColor=#ea6b66;" vertex="1" parent="1">
          <mxGeometry x="1360" y="2120" width="40" height="40" as="geometry" />
        </mxCell>
        <mxCell id="T1pnPK0idN3J2CBUCr8N-20" style="edgeStyle=none;rounded=0;orthogonalLoop=1;jettySize=auto;html=1;exitX=0.5;exitY=1;exitDx=0;exitDy=0;entryX=0.5;entryY=0;entryDx=0;entryDy=0;gradientColor=#ea6b66;fillColor=#f8cecc;strokeColor=#b85450;" edge="1" parent="1" source="T1pnPK0idN3J2CBUCr8N-22" target="T1pnPK0idN3J2CBUCr8N-9">
          <mxGeometry relative="1" as="geometry" />
        </mxCell>
        <mxCell id="T1pnPK0idN3J2CBUCr8N-21" style="edgeStyle=none;rounded=0;orthogonalLoop=1;jettySize=auto;html=1;exitX=0.5;exitY=1;exitDx=0;exitDy=0;entryX=0.5;entryY=0;entryDx=0;entryDy=0;gradientColor=#ea6b66;fillColor=#f8cecc;strokeColor=#b85450;" edge="1" parent="1" source="T1pnPK0idN3J2CBUCr8N-22" target="T1pnPK0idN3J2CBUCr8N-7">
          <mxGeometry relative="1" as="geometry" />
        </mxCell>
        <mxCell id="T1pnPK0idN3J2CBUCr8N-22" value="15" style="ellipse;whiteSpace=wrap;html=1;aspect=fixed;fillColor=#f8cecc;strokeColor=#b85450;gradientColor=#ea6b66;" vertex="1" parent="1">
          <mxGeometry x="1360" y="1960" width="40" height="40" as="geometry" />
        </mxCell>
        <mxCell id="T1pnPK0idN3J2CBUCr8N-23" value="5" style="ellipse;whiteSpace=wrap;html=1;aspect=fixed;fillColor=#f8cecc;strokeColor=#b85450;gradientColor=#ea6b66;" vertex="1" parent="1">
          <mxGeometry x="1120" y="1960" width="40" height="40" as="geometry" />
        </mxCell>
        <mxCell id="T1pnPK0idN3J2CBUCr8N-24" value="3" style="ellipse;whiteSpace=wrap;html=1;aspect=fixed;fillColor=#f5f5f5;strokeColor=#666666;gradientColor=#b3b3b3;" vertex="1" parent="1">
          <mxGeometry x="1080" y="2040" width="40" height="40" as="geometry" />
        </mxCell>
        <mxCell id="T1pnPK0idN3J2CBUCr8N-25" value="8" style="ellipse;whiteSpace=wrap;html=1;aspect=fixed;fillColor=#f5f5f5;strokeColor=#666666;gradientColor=#b3b3b3;" vertex="1" parent="1">
          <mxGeometry x="1160" y="2040" width="40" height="40" as="geometry" />
        </mxCell>
        <mxCell id="T1pnPK0idN3J2CBUCr8N-26" value="&lt;font color=&quot;#143642&quot;&gt;&lt;b&gt;删除元素13，记为DE&lt;/b&gt;&lt;/font&gt;" style="shape=callout;whiteSpace=wrap;html=1;perimeter=calloutPerimeter;rounded=1;position2=1;" vertex="1" parent="1">
          <mxGeometry x="1190" y="1960" width="120" height="80" as="geometry" />
        </mxCell>
        <mxCell id="T1pnPK0idN3J2CBUCr8N-27" value="7" style="ellipse;whiteSpace=wrap;html=1;aspect=fixed;fillColor=#f8cecc;strokeColor=#b85450;gradientColor=#ea6b66;" vertex="1" parent="1">
          <mxGeometry x="1560" y="2120" width="40" height="40" as="geometry" />
        </mxCell>
        <mxCell id="T1pnPK0idN3J2CBUCr8N-28" value="3" style="ellipse;whiteSpace=wrap;html=1;aspect=fixed;fillColor=#f5f5f5;strokeColor=#666666;gradientColor=#b3b3b3;" vertex="1" parent="1">
          <mxGeometry x="1520" y="2040" width="40" height="40" as="geometry" />
        </mxCell>
        <mxCell id="T1pnPK0idN3J2CBUCr8N-29" value="8" style="ellipse;whiteSpace=wrap;html=1;aspect=fixed;fillColor=#f5f5f5;strokeColor=#666666;gradientColor=#b3b3b3;" vertex="1" parent="1">
          <mxGeometry x="1600" y="2040" width="40" height="40" as="geometry" />
        </mxCell>
        <mxCell id="T1pnPK0idN3J2CBUCr8N-30" style="edgeStyle=none;rounded=1;sketch=0;orthogonalLoop=1;jettySize=auto;html=1;exitX=0.5;exitY=1;exitDx=0;exitDy=0;entryX=0.5;entryY=0;entryDx=0;entryDy=0;fontColor=#143642;strokeColor=#A8201A;fillColor=#FAE5C7;" edge="1" parent="1" target="T1pnPK0idN3J2CBUCr8N-28">
          <mxGeometry x="1480" y="1880" as="geometry">
            <mxPoint x="1580" y="2000" as="sourcePoint" />
          </mxGeometry>
        </mxCell>
        <mxCell id="T1pnPK0idN3J2CBUCr8N-31" style="edgeStyle=none;rounded=1;sketch=0;orthogonalLoop=1;jettySize=auto;html=1;exitX=0.5;exitY=1;exitDx=0;exitDy=0;entryX=0.5;entryY=0;entryDx=0;entryDy=0;fontColor=#143642;strokeColor=#A8201A;fillColor=#FAE5C7;" edge="1" parent="1" target="T1pnPK0idN3J2CBUCr8N-29">
          <mxGeometry x="1480" y="1880" as="geometry">
            <mxPoint x="1580" y="2000" as="sourcePoint" />
          </mxGeometry>
        </mxCell>
        <mxCell id="T1pnPK0idN3J2CBUCr8N-32" style="rounded=1;sketch=0;orthogonalLoop=1;jettySize=auto;html=1;exitX=0.5;exitY=1;exitDx=0;exitDy=0;entryX=0.5;entryY=0;entryDx=0;entryDy=0;fontColor=#143642;strokeColor=#A8201A;fillColor=#FAE5C7;" edge="1" parent="1" source="T1pnPK0idN3J2CBUCr8N-39" target="T1pnPK0idN3J2CBUCr8N-49">
          <mxGeometry x="1600" y="1880" as="geometry">
            <mxPoint x="1780" y="1920" as="sourcePoint" />
            <mxPoint x="1580" y="1960" as="targetPoint" />
          </mxGeometry>
        </mxCell>
        <mxCell id="T1pnPK0idN3J2CBUCr8N-33" value="16" style="ellipse;whiteSpace=wrap;html=1;aspect=fixed;fillColor=#f5f5f5;strokeColor=#666666;gradientColor=#b3b3b3;" vertex="1" parent="1">
          <mxGeometry x="1840" y="2040" width="40" height="40" as="geometry" />
        </mxCell>
        <mxCell id="T1pnPK0idN3J2CBUCr8N-34" style="edgeStyle=none;rounded=0;orthogonalLoop=1;jettySize=auto;html=1;exitX=0.5;exitY=1;exitDx=0;exitDy=0;entryX=0.5;entryY=0;entryDx=0;entryDy=0;gradientColor=#ea6b66;fillColor=#f8cecc;strokeColor=#b85450;" edge="1" parent="1" source="T1pnPK0idN3J2CBUCr8N-35" target="T1pnPK0idN3J2CBUCr8N-45">
          <mxGeometry relative="1" as="geometry" />
        </mxCell>
        <mxCell id="T1pnPK0idN3J2CBUCr8N-35" value="13" style="ellipse;whiteSpace=wrap;html=1;aspect=fixed;gradientColor=#b3b3b3;fillColor=#f5f5f5;strokeColor=#666666;" vertex="1" parent="1">
          <mxGeometry x="1760" y="2040" width="40" height="40" as="geometry" />
        </mxCell>
        <mxCell id="T1pnPK0idN3J2CBUCr8N-36" value="3" style="ellipse;whiteSpace=wrap;html=1;aspect=fixed;fillColor=#f5f5f5;strokeColor=#666666;gradientColor=#b3b3b3;" vertex="1" parent="1">
          <mxGeometry x="1520" y="2040" width="40" height="40" as="geometry" />
        </mxCell>
        <mxCell id="T1pnPK0idN3J2CBUCr8N-37" value="8" style="ellipse;whiteSpace=wrap;html=1;aspect=fixed;fillColor=#f5f5f5;strokeColor=#666666;gradientColor=#b3b3b3;" vertex="1" parent="1">
          <mxGeometry x="1600" y="2040" width="40" height="40" as="geometry" />
        </mxCell>
        <mxCell id="T1pnPK0idN3J2CBUCr8N-38" style="edgeStyle=none;rounded=0;orthogonalLoop=1;jettySize=auto;html=1;exitX=0.5;exitY=1;exitDx=0;exitDy=0;entryX=0.5;entryY=0;entryDx=0;entryDy=0;gradientColor=#ea6b66;fillColor=#f8cecc;strokeColor=#b85450;" edge="1" parent="1" source="T1pnPK0idN3J2CBUCr8N-39" target="T1pnPK0idN3J2CBUCr8N-48">
          <mxGeometry relative="1" as="geometry" />
        </mxCell>
        <mxCell id="T1pnPK0idN3J2CBUCr8N-39" value="12" style="ellipse;whiteSpace=wrap;html=1;aspect=fixed;fillColor=#f5f5f5;strokeColor=#666666;gradientColor=#b3b3b3;" vertex="1" parent="1">
          <mxGeometry x="1680" y="1880" width="40" height="40" as="geometry" />
        </mxCell>
        <mxCell id="T1pnPK0idN3J2CBUCr8N-40" value="3" style="ellipse;whiteSpace=wrap;html=1;aspect=fixed;fillColor=#f5f5f5;strokeColor=#666666;gradientColor=#b3b3b3;" vertex="1" parent="1">
          <mxGeometry x="1520" y="2040" width="40" height="40" as="geometry" />
        </mxCell>
        <mxCell id="T1pnPK0idN3J2CBUCr8N-41" style="edgeStyle=none;rounded=0;orthogonalLoop=1;jettySize=auto;html=1;exitX=0.5;exitY=1;exitDx=0;exitDy=0;entryX=0.5;entryY=0;entryDx=0;entryDy=0;strokeColor=#A8201A;" edge="1" parent="1" source="T1pnPK0idN3J2CBUCr8N-43" target="T1pnPK0idN3J2CBUCr8N-27">
          <mxGeometry relative="1" as="geometry" />
        </mxCell>
        <mxCell id="T1pnPK0idN3J2CBUCr8N-42" style="edgeStyle=none;rounded=0;orthogonalLoop=1;jettySize=auto;html=1;exitX=0.5;exitY=1;exitDx=0;exitDy=0;entryX=0.5;entryY=0;entryDx=0;entryDy=0;strokeColor=#A8201A;" edge="1" parent="1" source="T1pnPK0idN3J2CBUCr8N-43" target="T1pnPK0idN3J2CBUCr8N-44">
          <mxGeometry relative="1" as="geometry" />
        </mxCell>
        <mxCell id="T1pnPK0idN3J2CBUCr8N-43" value="8" style="ellipse;whiteSpace=wrap;html=1;aspect=fixed;fillColor=#f5f5f5;strokeColor=#666666;gradientColor=#b3b3b3;" vertex="1" parent="1">
          <mxGeometry x="1600" y="2040" width="40" height="40" as="geometry" />
        </mxCell>
        <mxCell id="T1pnPK0idN3J2CBUCr8N-44" value="9" style="ellipse;whiteSpace=wrap;html=1;aspect=fixed;fillColor=#f8cecc;strokeColor=#b85450;gradientColor=#ea6b66;" vertex="1" parent="1">
          <mxGeometry x="1640" y="2120" width="40" height="40" as="geometry" />
        </mxCell>
        <mxCell id="T1pnPK0idN3J2CBUCr8N-45" value="14" style="ellipse;whiteSpace=wrap;html=1;aspect=fixed;fillColor=#f8cecc;strokeColor=#b85450;gradientColor=#ea6b66;" vertex="1" parent="1">
          <mxGeometry x="1800" y="2120" width="40" height="40" as="geometry" />
        </mxCell>
        <mxCell id="T1pnPK0idN3J2CBUCr8N-46" style="edgeStyle=none;rounded=0;orthogonalLoop=1;jettySize=auto;html=1;exitX=0.5;exitY=1;exitDx=0;exitDy=0;entryX=0.5;entryY=0;entryDx=0;entryDy=0;gradientColor=#ea6b66;fillColor=#f8cecc;strokeColor=#b85450;" edge="1" parent="1" source="T1pnPK0idN3J2CBUCr8N-48" target="T1pnPK0idN3J2CBUCr8N-35">
          <mxGeometry relative="1" as="geometry" />
        </mxCell>
        <mxCell id="T1pnPK0idN3J2CBUCr8N-47" style="edgeStyle=none;rounded=0;orthogonalLoop=1;jettySize=auto;html=1;exitX=0.5;exitY=1;exitDx=0;exitDy=0;entryX=0.5;entryY=0;entryDx=0;entryDy=0;gradientColor=#ea6b66;fillColor=#f8cecc;strokeColor=#b85450;" edge="1" parent="1" source="T1pnPK0idN3J2CBUCr8N-48" target="T1pnPK0idN3J2CBUCr8N-33">
          <mxGeometry relative="1" as="geometry" />
        </mxCell>
        <mxCell id="T1pnPK0idN3J2CBUCr8N-48" value="15" style="ellipse;whiteSpace=wrap;html=1;aspect=fixed;fillColor=#f8cecc;strokeColor=#b85450;gradientColor=#ea6b66;" vertex="1" parent="1">
          <mxGeometry x="1800" y="1960" width="40" height="40" as="geometry" />
        </mxCell>
        <mxCell id="T1pnPK0idN3J2CBUCr8N-49" value="5" style="ellipse;whiteSpace=wrap;html=1;aspect=fixed;fillColor=#f8cecc;strokeColor=#b85450;gradientColor=#ea6b66;" vertex="1" parent="1">
          <mxGeometry x="1560" y="1960" width="40" height="40" as="geometry" />
        </mxCell>
        <mxCell id="T1pnPK0idN3J2CBUCr8N-50" value="3" style="ellipse;whiteSpace=wrap;html=1;aspect=fixed;fillColor=#f5f5f5;strokeColor=#666666;gradientColor=#b3b3b3;" vertex="1" parent="1">
          <mxGeometry x="1520" y="2040" width="40" height="40" as="geometry" />
        </mxCell>
        <mxCell id="T1pnPK0idN3J2CBUCr8N-51" value="8" style="ellipse;whiteSpace=wrap;html=1;aspect=fixed;fillColor=#f5f5f5;strokeColor=#666666;gradientColor=#b3b3b3;" vertex="1" parent="1">
          <mxGeometry x="1600" y="2040" width="40" height="40" as="geometry" />
        </mxCell>
        <mxCell id="T1pnPK0idN3J2CBUCr8N-52" value="&lt;font color=&quot;#143642&quot;&gt;&lt;b&gt;replacement变量（记为R）指向DE的右子节点&lt;/b&gt;&lt;/font&gt;" style="shape=callout;whiteSpace=wrap;html=1;perimeter=calloutPerimeter;rounded=1;position2=1;direction=west;" vertex="1" parent="1">
          <mxGeometry x="1840" y="2160" width="140" height="80" as="geometry" />
        </mxCell>
        <mxCell id="T1pnPK0idN3J2CBUCr8N-53" value="" style="html=1;shadow=0;dashed=0;align=center;verticalAlign=middle;shape=mxgraph.arrows2.arrow;dy=0.6;dx=40;notch=0;rounded=1;glass=0;sketch=0;fontColor=#143642;strokeColor=#0F8B8D;fillColor=#FAE5C7;" vertex="1" parent="1">
          <mxGeometry x="1450" y="1990" width="70" height="20" as="geometry" />
        </mxCell>
        <mxCell id="T1pnPK0idN3J2CBUCr8N-56" style="rounded=0;orthogonalLoop=1;jettySize=auto;html=1;exitX=0.5;exitY=0;exitDx=0;exitDy=0;entryX=0.5;entryY=1;entryDx=0;entryDy=0;fontSize=8;dashed=1;gradientColor=#ea6b66;fillColor=#f8cecc;strokeColor=#b85450;" edge="1" parent="1" source="T1pnPK0idN3J2CBUCr8N-55" target="T1pnPK0idN3J2CBUCr8N-45">
          <mxGeometry relative="1" as="geometry" />
        </mxCell>
        <mxCell id="T1pnPK0idN3J2CBUCr8N-55" value="R" style="ellipse;whiteSpace=wrap;html=1;aspect=fixed;fillColor=#d5e8d4;strokeColor=#82b366;fontSize=8;gradientColor=#97d077;" vertex="1" parent="1">
          <mxGeometry x="1760" y="2200" width="40" height="40" as="geometry" />
        </mxCell>
      </root>
    </mxGraphModel>
  </diagram>
</mxfile>
